<svg width="1600" height="1600" viewBox="0 0 1600 1600" fill="none" xmlns="http://www.w3.org/2000/svg">
<g clip-path="url(#clip0_1986_48)">
<rect width="1600" height="1600" fill="white"/>
<rect width="1600" height="1600" fill="#032E66"/>
<g clip-path="url(#clip1_1986_48)">
<path d="M1254.27 738.928V747.186C1262.53 749.931 1272.46 752.238 1284.09 754.06L1227.65 873.576L1167.56 755.444C1185.59 752.699 1198.13 749.931 1205.17 747.186V738.928H1072.13V746.725C1080.4 750.716 1090.32 753.599 1101.96 755.444L1200.6 942.803L1170.22 1000.36H1213.5C1217.33 993.507 1223.27 978.72 1226.73 969.839L1319.87 756.367C1328.44 754.522 1338.99 751.177 1351.52 746.263V738.928H1254.27Z" fill="#D1AB7D"/>
<path d="M593.757 952.56V960.657H493.94L385.582 815.098L354.557 847.9V943.148C360.859 944.048 372.84 947.185 390.522 952.583V960.68H248V951.684C254.902 949.584 261.712 947.716 268.453 946.078C275.193 944.44 280.364 943.31 283.965 942.71V664.163C270.761 661.464 258.78 658.166 248 654.29V646.193H390.522V655.19C379.119 658.789 367.138 661.926 354.557 664.625V809.308L492.14 665.547C488.839 664.048 484.568 662.779 479.328 661.718C474.088 660.68 470.556 659.988 468.755 659.688C465.454 659.388 461.253 658.65 456.174 657.451V646.216H560.492V657.451C556.591 658.65 553.151 659.411 550.15 659.688C543.548 661.188 538.678 662.387 535.538 663.287C532.399 664.186 529.305 665.824 526.327 668.223L426.973 772.007L554.652 943.195C566.032 945.294 579.075 948.431 593.757 952.629V952.56Z" fill="#D1AB7D"/>
<path d="M819.453 853.276H649.945C650.545 879.342 656.916 901.05 669.058 918.42C681.201 935.79 699.253 944.487 723.237 944.487C735.518 944.487 749.022 942.318 763.704 937.981C778.386 933.645 790.967 927.578 801.47 919.781L808.211 935.513C798.007 943.91 783.995 950.946 766.174 956.62C748.33 962.295 729.078 965.156 708.394 965.156C682.009 965.156 659.225 960.357 640.065 950.784C620.882 941.211 606.2 927.647 595.997 910.115C585.793 892.584 580.715 872.307 580.715 849.239C580.715 812.099 591.795 783.426 613.979 763.195C636.163 742.987 667.189 732.86 707.055 732.86C731.94 732.86 752.831 737.728 769.775 747.462C786.696 757.197 799.231 770.161 807.31 786.332C815.413 802.503 819.453 820.473 819.453 840.242V853.276ZM759.664 831.269C759.664 820.196 757.933 808.731 754.493 796.897C751.054 785.063 745.421 775.098 737.642 767.024C729.839 758.927 719.659 754.89 707.078 754.89C690.596 754.89 677.623 762.088 668.181 776.459C658.74 790.83 652.969 809.1 650.868 831.269H759.664Z" fill="#D1AB7D"/>
<path d="M966.775 812.953C969.107 834.845 945.422 844.764 939.582 863.034V965.71C927.393 973.045 899.254 965.225 887.619 951.638C866.659 931.661 876.423 907.186 874.461 881.304C878.501 851.707 841.405 839.712 844.313 810.9C846.391 792.538 864.004 799.989 873.284 807.509C887.504 814.752 902.439 794.222 917.006 805.225C934.319 821.373 962.482 779.205 966.775 812.953Z" fill="#D1AB7D"/>
<path d="M883.649 924.302C881.641 920.196 882.541 915.905 882.541 911.707C882.541 894.521 882.495 877.359 882.541 860.173C883.372 863.933 883.741 867.901 883.718 872.076C883.58 889.492 883.603 906.886 883.672 924.302H883.649Z" fill="#D1AB7D"/>
<path d="M1059.11 966.147C893.044 972.445 1033.14 809.308 980.026 714.337C975.27 701.326 975.547 652.768 975.547 618.558C1006.99 600.888 1050.06 641.857 1049.28 679.711C1047.92 745.409 998.493 928.846 1104.68 961.142C1098.68 962.849 1063.13 965.755 1059.11 966.124V966.147Z" fill="#D1AB7D"/>
<path d="M953.479 775.836C939.859 795.144 919.476 784.325 901.401 783.218C867.375 804.394 830.648 755.836 860.519 728.962C879.263 719.042 872.084 676.02 873.261 659.919C874.323 641.534 862.758 621.857 844.175 617.105C841.474 611.453 860.865 617.266 864.535 615.559C891.567 614.313 921.715 615.974 934.204 644.117C944.569 665.963 937.713 691.614 939.582 715.098C954.056 732.583 972.408 754.313 953.502 775.836H953.479Z" fill="#D1AB7D"/>
<path d="M406.889 1109.01V1050.88H432.074C437.268 1050.88 441.769 1051.73 445.532 1053.41C449.295 1055.1 452.203 1057.52 454.258 1060.68C456.312 1063.84 457.328 1067.58 457.328 1071.89C457.328 1076.21 456.312 1080.01 454.258 1083.15C452.203 1086.29 449.295 1088.71 445.532 1090.42C441.769 1092.15 437.268 1093 432.074 1093H414.299L420.439 1086.93V1109.03H406.889V1109.01ZM420.439 1088.41L414.299 1082.02H431.335C435.444 1082.02 438.537 1081.14 440.638 1079.37C442.739 1077.59 443.8 1075.1 443.8 1071.89C443.8 1068.69 442.739 1066.19 440.638 1064.46C438.537 1062.71 435.421 1061.86 431.335 1061.86H414.299L420.439 1055.47V1088.43V1088.41Z" fill="#D1AB7D"/>
<path d="M485.33 1109.01H471.779V1050.88H485.33V1109.01ZM512.662 1085.18H484.245V1073.81H512.662V1085.18ZM511.669 1050.88H525.127V1109.01H511.669V1050.88Z" fill="#D1AB7D"/>
<path d="M557.56 1109.01V1085.25L560.631 1093.39L534.961 1050.88H549.342L568.964 1083.43H560.746L580.437 1050.88H593.572L568.064 1093.39L571.134 1085.25V1109.01H557.584H557.56Z" fill="#D1AB7D"/>
<path d="M622.703 1110C618.04 1110 613.585 1109.38 609.291 1108.13C604.997 1106.89 601.558 1105.27 598.949 1103.26L603.52 1093.14C605.967 1094.91 608.899 1096.37 612.338 1097.5C615.778 1098.63 619.24 1099.2 622.726 1099.2C625.381 1099.2 627.528 1098.93 629.167 1098.37C630.806 1097.82 632.006 1097.08 632.791 1096.18C633.576 1095.26 633.945 1094.2 633.945 1092.98C633.945 1091.43 633.345 1090.19 632.121 1089.29C630.898 1088.36 629.282 1087.62 627.251 1087.05C625.219 1086.47 623.026 1085.92 620.648 1085.39C618.271 1084.86 615.87 1084.23 613.469 1083.47C611.068 1082.73 608.852 1081.72 606.821 1080.47C604.79 1079.23 603.197 1077.59 601.996 1075.58C600.796 1073.55 600.219 1071.04 600.219 1067.99C600.219 1064.67 601.096 1061.65 602.874 1058.9C604.651 1056.16 607.352 1053.97 610.976 1052.35C614.6 1050.72 619.171 1049.91 624.642 1049.91C628.289 1049.91 631.914 1050.35 635.492 1051.25C639.07 1052.15 642.186 1053.41 644.841 1055.08L640.593 1065.2C637.985 1063.7 635.307 1062.6 632.537 1061.83C629.767 1061.07 627.112 1060.7 624.55 1060.7C621.987 1060.7 619.748 1061 618.155 1061.58C616.539 1062.16 615.362 1062.94 614.623 1063.96C613.885 1064.95 613.492 1066.06 613.492 1067.28C613.492 1068.82 614.093 1070.07 615.316 1071.02C616.539 1071.96 618.132 1072.7 620.141 1073.21C622.126 1073.74 624.342 1074.27 626.789 1074.78C629.236 1075.31 631.637 1075.95 634.014 1076.74C636.392 1077.52 638.585 1078.49 640.57 1079.69C642.555 1080.89 644.194 1082.48 645.441 1084.51C646.688 1086.54 647.311 1089.03 647.311 1092.03C647.311 1095.31 646.411 1098.28 644.61 1101C642.809 1103.73 640.085 1105.89 636.415 1107.56C632.768 1109.22 628.197 1110.05 622.703 1110.05V1110Z" fill="#D1AB7D"/>
<path d="M660.607 1109.01V1050.88H674.158V1109.01H660.607Z" fill="#D1AB7D"/>
<path d="M720.258 1110C715.664 1110 711.416 1109.26 707.538 1107.76C703.66 1106.26 700.29 1104.16 697.404 1101.44C694.519 1098.74 692.303 1095.54 690.71 1091.89C689.14 1088.25 688.332 1084.26 688.332 1079.94C688.332 1075.63 689.117 1071.57 690.71 1067.95C692.279 1064.33 694.519 1061.14 697.404 1058.44C700.29 1055.72 703.66 1053.62 707.492 1052.12C711.347 1050.62 715.571 1049.88 720.165 1049.88C724.759 1049.88 728.983 1050.62 732.839 1052.08C736.694 1053.53 740.064 1055.63 742.926 1058.35C745.789 1061.07 748.028 1064.26 749.621 1067.9C751.191 1071.55 751.999 1075.56 751.999 1079.94C751.999 1084.33 751.214 1088.27 749.621 1091.94C748.051 1095.63 745.812 1098.81 742.926 1101.53C740.041 1104.26 736.671 1106.33 732.839 1107.81C728.983 1109.28 724.782 1110 720.258 1110ZM720.165 1098.63C722.774 1098.63 725.175 1098.17 727.344 1097.27C729.537 1096.34 731.453 1095.05 733.116 1093.37C734.778 1091.68 736.07 1089.72 736.971 1087.46C737.894 1085.23 738.333 1082.71 738.333 1079.94C738.333 1077.17 737.871 1074.66 736.971 1072.42C736.047 1070.18 734.778 1068.22 733.116 1066.52C731.453 1064.83 729.537 1063.52 727.344 1062.62C725.151 1061.7 722.751 1061.26 720.165 1061.26C717.58 1061.26 715.156 1061.72 712.94 1062.62C710.724 1063.54 708.808 1064.83 707.169 1066.52C705.53 1068.2 704.26 1070.16 703.337 1072.42C702.413 1074.66 701.975 1077.17 701.975 1079.94C701.975 1082.71 702.437 1085.23 703.337 1087.46C704.26 1089.7 705.53 1091.66 707.169 1093.37C708.808 1095.05 710.724 1096.37 712.94 1097.27C715.156 1098.19 717.557 1098.63 720.165 1098.63Z" fill="#D1AB7D"/>
<path d="M778.362 1109.01V1061.83H759.756V1050.88H810.449V1061.83H791.843V1109.01H778.385H778.362Z" fill="#D1AB7D"/>
<path d="M835.357 1109.01H821.807V1050.88H835.357V1109.01ZM862.689 1085.18H834.272V1073.81H862.689V1085.18ZM861.696 1050.88H875.154V1109.01H861.696V1050.88Z" fill="#D1AB7D"/>
<path d="M906.503 1098.21H938.174V1109.01H893.137V1050.88H937.089V1061.67H906.503V1098.21ZM905.51 1074.22H933.511V1084.76H905.51V1074.22Z" fill="#D1AB7D"/>
<path d="M953.041 1109.01V1050.88H978.226C983.42 1050.88 987.921 1051.73 991.684 1053.41C995.447 1055.1 998.355 1057.52 1000.41 1060.68C1002.46 1063.84 1003.48 1067.58 1003.48 1071.89C1003.48 1076.21 1002.46 1080.01 1000.41 1083.15C998.355 1086.29 995.447 1088.66 991.684 1090.3C987.921 1091.94 983.42 1092.75 978.226 1092.75H960.451L966.591 1086.93V1109.03H953.041V1109.01ZM966.591 1088.41L960.451 1082.02H977.487C981.596 1082.02 984.69 1081.14 986.79 1079.37C988.891 1077.59 989.953 1075.1 989.953 1071.89C989.953 1068.69 988.891 1066.19 986.79 1064.46C984.69 1062.71 981.573 1061.86 977.487 1061.86H960.451L966.591 1055.47V1088.43V1088.41ZM990.114 1109.01L975.479 1087.92H989.93L1004.57 1109.01H990.114Z" fill="#D1AB7D"/>
<path d="M1010.71 1109.01L1036.56 1050.88H1049.86L1075.94 1109.01H1061.81L1040.46 1057.68H1045.86L1024.51 1109.01H1010.71ZM1023.75 1096.55L1027.16 1086.33H1057.24L1060.73 1096.55H1023.75Z" fill="#D1AB7D"/>
<path d="M1086.17 1109.01V1050.88H1111.35C1116.55 1050.88 1121.05 1051.73 1124.81 1053.41C1128.57 1055.1 1131.48 1057.52 1133.54 1060.68C1135.59 1063.84 1136.61 1067.58 1136.61 1071.89C1136.61 1076.21 1135.59 1080.01 1133.54 1083.15C1131.48 1086.29 1128.57 1088.71 1124.81 1090.42C1121.05 1092.15 1116.55 1093 1111.35 1093H1093.58L1099.72 1086.93V1109.03H1086.17V1109.01ZM1099.72 1088.41L1093.58 1082.02H1110.61C1114.72 1082.02 1117.82 1081.14 1119.92 1079.37C1122.02 1077.59 1123.08 1075.1 1123.08 1071.89C1123.08 1068.69 1122.02 1066.19 1119.92 1064.46C1117.82 1062.71 1114.7 1061.86 1110.61 1061.86H1093.58L1099.72 1055.47V1088.43V1088.41Z" fill="#D1AB7D"/>
<path d="M1165.53 1109.01V1085.25L1168.6 1093.39L1142.93 1050.88H1157.31L1176.93 1083.43H1168.72L1188.41 1050.88H1201.54L1176.03 1093.39L1179.1 1085.25V1109.01H1165.55H1165.53Z" fill="#D1AB7D"/>
<path d="M649.206 555.444C644.935 555.444 640.988 554.636 637.41 553.045C633.832 551.453 630.877 549.146 628.592 546.124L636.741 536.459C638.426 538.743 640.249 540.473 642.212 541.603C644.174 542.733 646.274 543.31 648.49 543.31C654.469 543.31 657.447 539.85 657.447 532.906V502.826H635.286V491.084H672.106V532.122C672.106 539.965 670.167 545.801 666.265 549.654C662.387 553.506 656.685 555.444 649.206 555.444Z" fill="#D1AB7D"/>
<path d="M682.654 554.36L710.794 491.084H725.268L753.662 554.337H738.287L715.042 498.489H720.928L697.682 554.337H682.677L682.654 554.36ZM696.851 540.796L700.568 529.677H733.301L737.11 540.796H696.874H696.851Z" fill="#D1AB7D"/>
<path d="M764.788 554.36V491.084H776.908L803.847 535.721H797.43L823.838 491.084H836.05V554.337H822.384L822.199 512.122H824.9L803.547 547.555H797.037L775.43 512.122H778.408V554.337H764.742L764.788 554.36Z" fill="#D1AB7D"/>
<path d="M870.146 542.595H904.611V554.337H855.58V491.084H903.434V502.826H870.146V542.595ZM869.061 516.482H899.533V527.97H869.061V516.482Z" fill="#D1AB7D"/>
<path d="M941.684 555.444C936.629 555.444 931.758 554.775 927.072 553.414C922.386 552.053 918.646 550.3 915.807 548.131L920.793 537.105C923.448 539.042 926.633 540.611 930.373 541.857C934.112 543.102 937.875 543.702 941.684 543.702C944.57 543.702 946.924 543.402 948.702 542.803C950.479 542.203 951.795 541.395 952.626 540.403C953.48 539.412 953.896 538.258 953.896 536.92C953.896 535.236 953.226 533.898 951.91 532.906C950.572 531.914 948.817 531.107 946.624 530.461C944.431 529.815 942.03 529.215 939.422 528.662C936.836 528.085 934.228 527.393 931.596 526.586C928.965 525.778 926.564 524.694 924.371 523.333C922.178 521.972 920.424 520.196 919.131 518.004C917.838 515.813 917.192 513.045 917.192 509.746C917.192 506.124 918.161 502.826 920.077 499.85C921.993 496.874 924.948 494.498 928.895 492.722C932.843 490.946 937.806 490.046 943.762 490.046C947.732 490.046 951.68 490.53 955.558 491.499C959.436 492.468 962.829 493.852 965.738 495.651L961.121 506.678C958.282 505.04 955.373 503.841 952.349 503.01C949.325 502.203 946.439 501.788 943.669 501.788C940.899 501.788 938.452 502.11 936.698 502.733C934.943 503.356 933.674 504.233 932.843 505.317C932.035 506.401 931.619 507.601 931.619 508.939C931.619 510.623 932.289 511.984 933.605 512.999C934.92 514.037 936.675 514.821 938.845 515.398C941.015 515.974 943.415 516.551 946.07 517.105C948.725 517.658 951.356 518.373 953.942 519.227C956.527 520.081 958.905 521.142 961.075 522.433C963.245 523.725 964.999 525.478 966.361 527.67C967.723 529.861 968.393 532.583 968.393 535.836C968.393 539.388 967.423 542.641 965.461 545.594C963.499 548.546 960.521 550.922 956.55 552.722C952.58 554.521 947.594 555.421 941.638 555.421L941.684 555.444Z" fill="#D1AB7D"/>
</g>
<mask id="mask0_1986_48" style="mask-type:alpha" maskUnits="userSpaceOnUse" x="711" y="606" width="179" height="388">
<path d="M794.935 823.297C796.528 847.243 780.347 858.093 776.357 878.077V990.39C768.03 998.414 748.806 989.86 740.857 974.998C726.537 953.146 733.208 926.374 731.868 898.062C734.628 865.688 709.284 852.567 711.271 821.051C712.691 800.965 724.724 809.116 731.064 817.342C740.778 825.265 750.982 802.807 760.933 814.843C772.761 832.507 792.001 786.381 794.935 823.297Z" fill="#032E66"/>
<path d="M858.032 990.844C744.578 997.733 840.29 819.284 804.002 715.4C800.753 701.168 800.942 648.053 800.942 610.632C822.422 591.304 851.85 636.118 851.314 677.525C850.384 749.389 816.619 950.042 889.164 985.368C885.063 987.236 860.776 990.415 858.032 990.819V990.844Z" fill="#032E66"/>
<path d="M785.85 782.671C776.545 803.791 762.62 791.957 750.271 790.746C727.025 813.91 701.934 760.794 722.341 731.398C735.147 720.548 730.242 673.488 731.047 655.875C731.772 635.765 723.871 614.241 711.176 609.043C709.33 602.861 722.578 609.219 725.085 607.352C743.553 605.99 764.149 607.806 772.681 638.565C779.762 662.461 775.078 690.52 776.356 716.208C786.244 735.334 798.782 759.104 785.865 782.646L785.85 782.671Z" fill="#032E66"/>
</mask>
<g mask="url(#mask0_1986_48)">
<circle cx="790.5" cy="666.1" r="101.5" fill="#032E66"/>
</g>
</g>
<defs>
<clipPath id="clip0_1986_48">
<rect width="1600" height="1600" fill="white"/>
</clipPath>
<clipPath id="clip1_1986_48">
<rect width="1103.52" height="620" fill="white" transform="translate(248 490)"/>
</clipPath>
</defs>
</svg>
