<?xml version="1.0" encoding="UTF-8"?>
<svg id="Layer_1" data-name="Layer 1" xmlns="http://www.w3.org/2000/svg" viewBox="0 0 148.45 51.29">
  <defs>
    <style>
      .cls-1 {
        stroke-width: 0px;
      }
    </style>
  </defs>
  <path class="cls-1" d="m18.23,31.08c0,.64-.45,1.15-1.19,1.15-.68,0-1.13-.51-1.13-1.15s.47-1.17,1.17-1.17,1.15.51,1.15,1.17Zm-2.09,13.21v-10.31h1.87v10.31h-1.87Zm14.5-18.13c-2.13,1.2-4.49,1.8-7.09,1.8-3.02,0-5.47-.97-7.33-2.92-1.87-1.95-2.8-4.53-2.8-7.74s1.04-5.97,3.11-8.07,4.7-3.15,7.88-3.15c2.3,0,4.24.37,5.8,1.12v2.75c-1.71-1.08-3.74-1.62-6.08-1.62s-4.32.82-5.83,2.45c-1.52,1.63-2.27,3.75-2.27,6.35s.7,4.78,2.11,6.31c1.41,1.53,3.32,2.3,5.73,2.3,1.65,0,3.09-.33,4.3-.99v-5.94h-4.64v-2.24h7.12v9.6Zm48.45,1.45h-2.42v-8.62c0-3.21-1.17-4.81-3.52-4.81-1.21,0-2.21.46-3,1.37-.79.91-1.19,2.06-1.19,3.45v8.62h-2.15v-15.12h2.15v2.51h.06c1.14-1.91,2.8-2.86,4.96-2.86,1.65,0,2.92.53,3.8,1.6.88,1.07,1.31,2.61,1.31,4.63v9.24Zm14.31,0h-2.42v-2.36h-.06c-1.05,1.81-2.6,2.72-4.65,2.72-1.51,0-2.68-.4-3.54-1.2-.85-.8-1.28-1.86-1.28-3.18,0-2.83,1.66-4.47,4.99-4.93l4.53-.63c0-2.57-1.04-3.86-3.12-3.86-1.82,0-3.47.62-4.93,1.86v-2.48c1.49-.94,3.2-1.42,5.14-1.42,3.55,0,5.33,1.88,5.33,5.64v9.84Zm-2.42-7.65l-3.65.5c-1.12.16-1.97.44-2.54.83-.57.4-.86,1.1-.86,2.12,0,.74.26,1.34.79,1.81.53.47,1.23.7,2.1.7,1.2,0,2.19-.42,2.98-1.26s1.18-1.91,1.18-3.2v-1.51Zm-28.52-6.22c-.88-1.07-2.14-1.6-3.8-1.6-2.17,0-3.88.95-5.02,2.86v-2.51h-2.42v3.66c-1.9.94-3.74,1.49-5.11,1.8v-.2c0-3.76-1.39-5.61-4.94-5.61-1.94,0-3.65.47-5.14,1.42v2.48c1.47-1.24,3.11-1.86,4.93-1.86,2.08,0,3.12,1.29,3.12,3.86l-4.53.63c-3.33.46-4.99,2.11-4.99,4.93,0,1.32.42,2.38,1.28,3.18.85.8,2.03,1.2,3.54,1.2,2.05,0,3.6-.91,4.65-2.72h.06v1.28h2.03v-6.54c1.33-.24,2.95-.7,5.11-1.57v9.19h2.42v-8.62c0-1.39.4-2.54,1.19-3.45.79-.91,1.79-1.37,3-1.37,2.34,0,3.52,1.61,3.52,4.81v8.62h2.42v-9.24c0-2.02-.44-3.56-1.31-4.63Zm-18.39,7.73c0,1.29-.39,2.36-1.18,3.2s-1.77,1.26-2.98,1.26c-.88,0-1.58-.23-2.1-.7-.53-.47-.79-1.07-.79-1.81,0-1.01.29-1.72.86-2.12.57-.4,1.42-.68,2.54-.83l3.65-.5v1.51ZM5.09,44.29v-14.13h4.02c1.22,0,2.19.3,2.91.9.72.6,1.07,1.38,1.07,2.33,0,.8-.22,1.5-.65,2.09-.43.59-1.03,1.01-1.79,1.26v.04c.95.11,1.71.47,2.29,1.08.57.61.86,1.4.86,2.37,0,1.21-.43,2.19-1.3,2.94-.87.75-1.96,1.12-3.28,1.12h-4.12Zm1.65-12.63v4.56h1.69c.91,0,1.62-.22,2.14-.65s.78-1.05.78-1.85c0-1.37-.9-2.06-2.71-2.06h-1.9Zm0,6.05v5.08h2.25c.97,0,1.73-.23,2.26-.69.54-.46.8-1.09.8-1.89,0-1.67-1.14-2.5-3.41-2.5h-1.9Zm22.61,1.94h-7.12c.03,1.12.33,1.99.91,2.6.58.61,1.37.92,2.38.92,1.14,0,2.18-.37,3.13-1.12v1.52c-.89.64-2.06.97-3.52.97s-2.54-.46-3.36-1.37c-.81-.92-1.22-2.21-1.22-3.87,0-1.57.44-2.85,1.33-3.84s1.99-1.48,3.31-1.48,2.34.43,3.06,1.28c.72.85,1.08,2.04,1.08,3.56v.85Zm-1.65-1.37c0-.93-.23-1.66-.68-2.18s-1.06-.78-1.85-.78-1.41.27-1.94.82c-.53.55-.86,1.26-.99,2.14h5.45Zm5.13,6.01h-1.62v-14.93h1.62v14.93Zm30.27-4.64h-7.12c.03,1.12.33,1.99.91,2.6.58.61,1.37.92,2.38.92,1.14,0,2.18-.37,3.13-1.12v1.52c-.89.64-2.06.97-3.52.97s-2.54-.46-3.36-1.37c-.81-.92-1.22-2.21-1.22-3.87,0-1.57.44-2.85,1.33-3.84s1.99-1.48,3.31-1.48,2.34.43,3.06,1.28c.72.85,1.08,2.04,1.08,3.56v.85Zm-1.65-1.37c0-.93-.23-1.66-.68-2.18s-1.06-.78-1.85-.78-1.41.27-1.94.82c-.53.55-.86,1.26-.99,2.14h5.45Zm11.52-4.08l-4.02,10.09h-1.59l-3.82-10.09h1.77l2.56,7.33c.19.54.31,1.01.35,1.41h.04c.07-.51.17-.96.32-1.37l2.68-7.37h1.7Zm-23.9-.26c-1.28.02-2.14.1-2.99,1.16l.03-6.38h-2v10.9c-.6,1.1-1.27,1.97-2.25,2.76-.73.51-1.5.77-2.32.77-1.04,0-1.88-.34-2.5-1.02-.62-.68-.93-1.62-.93-2.8s.33-2.17.99-2.91c.66-.74,1.51-1.11,2.54-1.11.85,0,1.66.26,2.4.79v-1.66c-.68-.33-1.46-.49-2.34-.49-1.59,0-2.86.5-3.81,1.51-.95,1.01-1.43,2.34-1.43,4,0,1.49.44,2.7,1.32,3.64s2.04,1.4,3.48,1.4c.97,0,1.81-.2,2.54-.59h0c.89-.41,1.59-.93,2.31-2.04v2.38h1.62v-5.18c.12-1.18.27-2.27.81-2.88.54-.61,1.2-.91,1.99-.91,1.56,0,2.34,1.05,2.34,3.15v5.81h1.62v-6.22c0-2.74-1.14-4.14-3.41-4.11Zm41.82,5.38c0,.72-.16,1.25-.49,1.59-.33.35-.83.52-1.51.52-.42,0-.82-.09-1.2-.28v-.49c.42.23.82.35,1.2.35,1.01,0,1.51-.53,1.51-1.6v-.46h-.01c-.3.51-.75.76-1.36.76-.24,0-.46-.04-.65-.13s-.37-.22-.51-.38c-.14-.17-.25-.37-.33-.61-.08-.24-.12-.51-.12-.8,0-.32.04-.61.12-.87s.2-.48.35-.67c.15-.19.34-.33.56-.43.22-.1.46-.15.73-.15.55,0,.94.22,1.2.66h.01v-.57h.48v3.56Zm-.48-2.05c0-.16-.03-.31-.09-.46-.06-.14-.14-.27-.24-.38-.1-.11-.23-.19-.37-.26-.14-.06-.3-.1-.47-.1-.2,0-.38.04-.55.12-.16.08-.3.19-.41.33-.11.14-.2.32-.26.52-.06.21-.09.44-.09.69,0,.24.03.45.09.64.06.19.14.35.24.49s.23.24.38.31.32.11.5.11.36-.03.52-.1.29-.16.4-.29c.11-.12.2-.26.26-.43.06-.16.09-.34.09-.53v-.67Zm3.59-1.02c-.11-.08-.26-.12-.44-.12-.13,0-.24.02-.34.07-.1.05-.18.11-.26.2s-.14.18-.19.29c-.05.11-.09.22-.12.34-.03.12-.05.24-.07.36-.01.12-.02.24-.02.34v1.89h-.48v-3.86h.48v.83h.01c.05-.14.1-.27.17-.38.07-.11.15-.21.24-.28.09-.08.19-.13.3-.17s.22-.06.34-.06c.08,0,.15,0,.21.01s.12.03.17.05v.5Zm2.87,3.37v-.69h-.01c-.13.25-.3.44-.52.57s-.46.2-.74.2c-.19,0-.35-.03-.5-.08-.15-.05-.28-.13-.38-.22-.1-.1-.18-.21-.24-.35-.06-.14-.09-.29-.09-.45,0-.35.11-.63.32-.84.22-.21.54-.34.98-.41l1.17-.17c0-.74-.29-1.11-.86-1.11-.45,0-.87.16-1.25.49v-.53c.08-.06.17-.11.27-.16.1-.05.21-.09.32-.12.11-.03.23-.06.35-.08.12-.02.24-.03.35-.03.43,0,.76.12.98.36s.33.6.33,1.08v2.51h-.48Zm-1-1.87c-.17.03-.32.06-.45.09-.12.04-.23.09-.31.15-.08.06-.14.14-.18.24-.04.09-.06.21-.06.35,0,.1.02.2.05.29.04.09.09.16.16.23.07.06.15.11.25.15.1.03.21.05.34.05.17,0,.33-.03.47-.1.14-.07.27-.16.37-.27.1-.12.19-.25.25-.41.06-.16.09-.34.09-.52v-.38l-1,.14Zm3.07,1.25v2.4h-.48v-5.64h.48v.74h.01c.14-.27.33-.47.58-.62.24-.14.51-.21.81-.21.25,0,.47.04.66.13.2.09.36.22.49.38.13.16.24.36.31.6.07.23.11.5.11.79,0,.32-.04.61-.12.87-.08.26-.2.49-.35.68-.15.19-.33.33-.55.44-.22.1-.46.16-.73.16-.54,0-.95-.24-1.22-.71h-.01Zm0-.98c0,.18.03.34.09.5.06.15.14.29.25.41.11.12.23.21.38.28.15.07.31.1.5.1.19,0,.37-.04.52-.12s.29-.2.4-.35c.11-.15.19-.33.25-.55.06-.21.09-.45.09-.72,0-.23-.03-.43-.08-.61-.06-.18-.13-.34-.24-.47s-.23-.23-.37-.29c-.14-.07-.31-.1-.48-.1-.2,0-.38.04-.54.11s-.3.18-.41.3c-.11.13-.2.28-.26.45-.06.17-.09.36-.09.55v.51Zm6.5,1.61v-2.27c0-.43-.08-.75-.23-.96-.16-.21-.4-.31-.73-.31-.16,0-.3.03-.44.09-.14.06-.26.15-.37.27-.11.12-.19.26-.25.43-.06.17-.09.36-.09.57v2.16h-.48v-5.72h.48v2.52h.01c.3-.51.73-.76,1.3-.76.43,0,.75.13.97.4.22.26.32.65.32,1.17v2.39h-.48Zm1.83-4.84c-.09,0-.17-.03-.24-.1-.07-.07-.1-.15-.1-.25s.03-.18.1-.24c.07-.06.15-.1.24-.1.05,0,.09,0,.14.02.04.02.08.04.11.07.03.03.06.07.08.11.02.04.03.09.03.14s0,.09-.03.14c-.02.04-.04.08-.08.11-.03.03-.07.06-.11.07-.04.02-.09.03-.14.03Zm-.24,4.84v-3.86h.48v3.86h-.48Zm4.24-.17c-.29.17-.63.26-1.04.27-.28,0-.53-.05-.75-.14-.22-.1-.41-.23-.57-.41s-.28-.38-.36-.62-.12-.5-.12-.78.04-.56.13-.82c.09-.25.22-.48.38-.67.17-.19.37-.34.62-.45.24-.11.52-.17.84-.17s.61.06.87.18v.51c-.28-.19-.59-.28-.91-.28-.23,0-.43.04-.61.13-.18.09-.33.2-.45.35-.12.15-.22.32-.28.52s-.1.41-.1.64c0,.21.03.4.08.59.05.19.14.36.25.5.11.14.25.26.42.34.17.09.37.13.6.13.36,0,.69-.11.98-.32v.47Zm5.64.17v-.68h-.01c-.13.24-.31.43-.55.57-.24.13-.51.2-.81.2-.24,0-.46-.05-.66-.13-.2-.09-.37-.22-.51-.39-.14-.17-.25-.37-.33-.61-.08-.24-.11-.51-.11-.81s.04-.6.13-.85c.08-.26.2-.48.36-.66s.34-.33.56-.43c.22-.1.46-.15.73-.15.56,0,.95.22,1.2.67h.01v-2.43h.48v5.72h-.48Zm0-2.33c0-.17-.03-.33-.09-.47s-.14-.27-.24-.38c-.1-.11-.23-.19-.37-.26s-.3-.09-.48-.09c-.19,0-.37.04-.53.11-.16.08-.3.18-.41.33-.11.14-.2.31-.27.52-.06.2-.1.44-.1.69,0,.24.03.46.09.66.06.19.14.36.25.49.11.13.23.24.38.31s.31.11.49.11c.2,0,.37-.03.53-.11s.29-.17.4-.29c.11-.12.19-.27.25-.43.06-.17.09-.34.09-.53v-.64Zm1.9.49c0,.24.03.45.09.64s.15.35.26.48c.11.13.25.23.41.3.16.07.34.1.55.1.44,0,.85-.15,1.23-.46v.48c-.37.26-.82.4-1.34.4-.26,0-.49-.05-.7-.14-.21-.09-.39-.22-.54-.39-.15-.17-.26-.38-.34-.64s-.12-.54-.12-.86c0-.29.04-.56.13-.8.09-.25.21-.46.37-.64s.34-.32.55-.42c.21-.1.45-.15.7-.15s.47.04.66.13c.19.09.35.21.48.37.13.16.23.36.3.59.07.23.1.49.1.78v.24h-2.79Zm2.29-.42c0-.4-.1-.71-.29-.94s-.44-.33-.77-.33c-.16,0-.31.03-.45.09-.14.06-.26.14-.37.25-.11.11-.19.24-.26.4-.07.16-.12.33-.15.53h2.28Zm1.17,1.57c.07.06.15.11.24.15.09.05.17.08.26.12.09.03.18.06.27.07.09.02.18.02.26.02.57,0,.86-.22.86-.64,0-.1-.02-.18-.06-.25s-.1-.14-.17-.2-.17-.11-.27-.16-.22-.1-.36-.16c-.18-.07-.33-.15-.46-.22-.13-.08-.23-.16-.32-.25s-.14-.19-.18-.29c-.04-.11-.06-.23-.06-.36,0-.17.04-.32.11-.46s.17-.25.3-.34c.13-.09.27-.16.44-.21s.34-.07.52-.07c.33,0,.63.06.87.19v.51c-.29-.19-.6-.28-.94-.28-.12,0-.23.02-.33.05-.1.03-.18.07-.25.13s-.13.12-.16.2c-.04.08-.06.16-.06.25s.01.18.05.25.08.14.14.19c.06.06.15.11.25.17.1.05.23.11.37.17.19.08.35.15.48.22s.25.15.34.24c.09.09.15.18.2.29.04.11.06.23.06.37,0,.17-.04.33-.11.46s-.17.25-.3.34c-.13.09-.28.16-.45.21-.17.05-.36.07-.56.07-.39,0-.72-.08-.98-.25v-.54Zm3.54-4.14c-.09,0-.17-.03-.24-.1-.07-.07-.1-.15-.1-.25s.03-.18.1-.24c.07-.06.15-.1.24-.1.05,0,.09,0,.14.02.04.02.08.04.11.07.03.03.06.07.08.11.02.04.03.09.03.14s0,.09-.03.14c-.02.04-.04.08-.08.11-.03.03-.07.06-.11.07-.04.02-.09.03-.14.03Zm-.24,4.84v-3.86h.48v3.86h-.48Zm4.86-.3c0,.72-.16,1.25-.49,1.59-.33.35-.83.52-1.51.52-.42,0-.82-.09-1.2-.28v-.49c.42.23.82.35,1.2.35,1.01,0,1.51-.53,1.51-1.6v-.46h-.01c-.3.51-.75.76-1.36.76-.24,0-.46-.04-.65-.13s-.37-.22-.51-.38c-.14-.17-.25-.37-.33-.61-.08-.24-.12-.51-.12-.8,0-.32.04-.61.12-.87s.2-.48.35-.67c.15-.19.34-.33.56-.43.22-.1.46-.15.73-.15.55,0,.94.22,1.2.66h.01v-.57h.48v3.56Zm-.48-2.05c0-.16-.03-.31-.09-.46-.06-.14-.14-.27-.24-.38-.1-.11-.23-.19-.37-.26-.14-.06-.3-.1-.47-.1-.2,0-.38.04-.55.12-.16.08-.3.19-.41.33-.11.14-.2.32-.26.52-.06.21-.09.44-.09.69,0,.24.03.45.09.64.06.19.14.35.24.49s.23.24.38.31.32.11.5.11.36-.03.52-.1.29-.16.4-.29c.11-.12.2-.26.26-.43.06-.16.09-.34.09-.53v-.67Zm4.28,2.35v-2.22c0-.87-.32-1.31-.95-1.31-.17,0-.32.03-.47.1-.14.07-.27.16-.37.28-.1.12-.19.26-.25.42-.06.16-.09.34-.09.53v2.21h-.48v-3.86h.48v.67h.01c.29-.51.72-.76,1.29-.76.42,0,.74.14.97.41.22.27.33.67.33,1.19v2.35h-.48Zm1.82-1.84c0,.24.03.45.09.64s.15.35.26.48c.11.13.25.23.41.3.16.07.34.1.55.1.44,0,.85-.15,1.23-.46v.48c-.37.26-.82.4-1.34.4-.26,0-.49-.05-.7-.14-.21-.09-.39-.22-.54-.39-.15-.17-.26-.38-.34-.64s-.12-.54-.12-.86c0-.29.04-.56.13-.8.09-.25.21-.46.37-.64s.34-.32.55-.42c.21-.1.45-.15.7-.15s.47.04.66.13c.19.09.35.21.48.37.13.16.23.36.3.59.07.23.1.49.1.78v.24h-2.79Zm2.29-.42c0-.4-.1-.71-.29-.94s-.44-.33-.77-.33c-.16,0-.31.03-.45.09-.14.06-.26.14-.37.25-.11.11-.19.24-.26.4-.07.16-.12.33-.15.53h2.28Zm3.31-1.1c-.11-.08-.26-.12-.44-.12-.13,0-.24.02-.34.07-.1.05-.18.11-.26.2s-.14.18-.19.29c-.05.11-.09.22-.12.34-.03.12-.05.24-.07.36-.01.12-.02.24-.02.34v1.89h-.48v-3.86h.48v.83h.01c.05-.14.1-.27.17-.38.07-.11.15-.21.24-.28.09-.08.19-.13.3-.17s.22-.06.34-.06c.08,0,.15,0,.21.01s.12.03.17.05v.5Zm-57.46,7.96s-2.27.07-2.74-.19c-.58-.46-.51-1.62-.51-2.12v-4.18c0-2.51-1.19-3.76-3.56-3.76-1.29,0-2.43.31-3.43.94v1.66c.98-.83,2.08-1.24,3.3-1.24,1.38,0,2.07.85,2.07,2.57l-3.02.42c-2.22.31-3.33,1.41-3.33,3.29,0,.88.28,1.59.85,2.12.57.53,1.36.8,2.36.8,1.37,0,2.4-.61,3.1-1.82h.04v.6c0,.87.82,1.83,1.89,1.83h2.22l59.93.08v-.99h-59.17Zm-4.87-4.03c0,.86-.26,1.57-.78,2.14-.52.56-1.18.84-1.98.84-.59,0-1.06-.16-1.41-.47-.35-.31-.53-.71-.53-1.21,0-.67.19-1.14.58-1.41.38-.27.94-.45,1.69-.56l2.43-.33v1Z"/>
</svg>